# xmcd
#
# Track frame offsets:
#	150
#	12497
#	21507
#	36622
#	49142
#	66330
#	79497
#	93047
#	108380
#	121290
#	137565
#	154577
#	166722
#	177030
#	189487
#	207615
#	228932
#	246165
#	259177
#	271512
#
# Disc length: 3887 seconds
#
# Revision: 1
# Processed by: cddbd v1.5PL3 Copyright (c) Steve Scherf et al.
# Submitted via: CDex 1.50Beta5
#
DISCID=120f2d14
DTITLE=Various Artist - Back To The Movie
DYEAR=1900
DGENRE=Soundtrack -> General Soundtrack
TTITLE0=The Fore Tops/I Can't Help Myself［Sugar Pie,Honey Bunch］
TTITLE1=Tom Jones/It's Not Unusual
TTITLE2=Edwin Starr/WAR
TTITLE3=James Brown/Got You［I Feel Good］
TTITLE4=Irene Cara/Flashdance…What A Feeling'95
TTITLE5=The Temptations/My Girl
TTITLE6=Smokey Robinson and The Miracles/Tracks Of My Tears
TTITLE7=Stealers Wheel/Stuck In The Middle With You
TTITLE8=The Temptations/Wish It Would Rain
TTITLE9=Steppenwolf/Born To Be World
TTITLE10=Bee Gees/Melody Fair
TTITLE11=Chuck Berry/You Never Can Tell
TTITLE12=Louis Armstrong/What A Wonderful World
TTITLE13=Muddy Waters/［I'm Your］Hoochie Coochie Man
TTITLE14=The Mavericks/Blue Moon
TTITLE15=Lynyrd Skynyrd/Sweet Home Alabama
TTITLE16=Marvin Gaye/Trouble Man
TTITLE17=Marvin Gaye and Diana Ross/Stop,Look,Listen［To Your Heart］
TTITLE18=Michael Jackson/BEN
TTITLE19=Diana Ross&Lionel Richie/Endless Love
EXTD=
EXTT0=
EXTT1=
EXTT2=
EXTT3=
EXTT4=
EXTT5=
EXTT6=
EXTT7=
EXTT8=
EXTT9=
EXTT10=
EXTT11=
EXTT12=
EXTT13=
EXTT14=
EXTT15=
EXTT16=
EXTT17=
EXTT18=
EXTT19=
PLAYORDER=
